# xmcd
#
# Track frame offsets: 
#        150
#        11075
#        23473
#        34425
#        44908
#        57175
#        72305
#        87128
#        97423
#        110528
#        121823
#
# Disc length: 1778 seconds
#
# Revision: 0
# Processed by: cddbd v1.5.1PL2 Copyright (c) Steve Scherf et al.
# Submitted via: ExactAudioCopy v0.95a5
#
DISCID=9706f00b
DTITLE=Porter Wagoner - Misery Loves Company
DYEAR=1900
DGENRE=Country
TTITLE0=Enought to Make a Grown Man Cry
TTITLE1=Satisfied
TTITLE2=Misery Loves Company
TTITLE3=Sorrow on the Rocks
TTITLE4=Green, Green Grass of Home
TTITLE5=Skid Row Joe
TTITLE6=Cold Hard Facts of Life
TTITLE7=Big Wind
TTITLE8=Carroll County Accident
TTITLE9=Eat, Drink and Be Merry
TTITLE10=What Would You Do if Jesus Came to Your House?
EXTD=
EXTT0=
EXTT1=
EXTT2=
EXTT3=
EXTT4=
EXTT5=
EXTT6=
EXTT7=
EXTT8=
EXTT9=
EXTT10=
PLAYORDER=
